<svg width="1440" height="1024" viewBox="0 0 1440 1024" fill="none" xmlns="http://www.w3.org/2000/svg">
<rect width="1440" height="1024" fill="#131212"/>
<rect x="288" y="754" width="878" height="82" rx="15" fill="#222222"/>
<rect x="223" y="150" width="1054" height="489" rx="14" stroke="white" stroke-width="2" stroke-dasharray="4 4"/>
<path d="M656.94 92.032V94.66H648.948V106H645.816V80.8H657.84V83.428H648.948V92.032H656.94ZM669.577 103.372V83.428H666.337V80.8H675.949V83.428H672.709V103.372H675.949V106H666.337V103.372H669.577ZM688.155 80.8V103.264H696.183V106H685.023V80.8H688.155ZM708.46 106V83.536H702.736V80.8H717.316V83.536H711.592V106H708.46ZM735.498 80.8V83.428H726.606V91.672H734.598V94.3H726.606V103.372H735.498V106H723.474V80.8H735.498ZM744.859 95.56V106H741.727V80.8H748.495C750.535 80.8 752.071 81.256 753.103 82.168C754.159 83.056 754.687 84.472 754.687 86.416V89.872C754.687 92.584 753.607 94.276 751.447 94.948L756.451 106H753.031L748.387 95.56H744.859ZM751.555 86.092C751.555 85.18 751.339 84.52 750.907 84.112C750.499 83.704 749.839 83.5 748.927 83.5H744.859V92.86H748.927C749.839 92.86 750.499 92.656 750.907 92.248C751.339 91.816 751.555 91.144 751.555 90.232V86.092ZM775.568 99.88C775.568 101.92 775.004 103.456 773.876 104.488C772.772 105.496 771.176 106 769.088 106H767.648C765.56 106 763.952 105.496 762.824 104.488C761.72 103.456 761.168 101.92 761.168 99.88V86.92C761.168 84.88 761.72 83.356 762.824 82.348C763.952 81.316 765.56 80.8 767.648 80.8H769.088C771.176 80.8 772.772 81.316 773.876 82.348C775.004 83.356 775.568 84.88 775.568 86.92V99.88ZM772.436 86.236C772.436 85.492 772.16 84.856 771.608 84.328C771.056 83.8 770.336 83.536 769.448 83.536H767.288C766.4 83.536 765.68 83.8 765.128 84.328C764.576 84.856 764.3 85.492 764.3 86.236V100.564C764.3 101.308 764.576 101.944 765.128 102.472C765.68 103 766.4 103.264 767.288 103.264H769.448C770.336 103.264 771.056 103 771.608 102.472C772.16 101.944 772.436 101.308 772.436 100.564V86.236ZM783.31 106H779.926L786.19 92.968L780.502 80.8H783.922L787.882 89.332L791.986 80.8H795.334L789.502 92.932L795.694 106H792.166L787.846 96.532L783.31 106Z" fill="white"/>
<circle cx="720.5" cy="911.5" r="37.5" fill="#E7E5E5"/>
<path d="M718.1 925.74V914.75H707.53V909.5H718.1V898.44H723.7V909.5H734.2V914.75H723.7V925.74H718.1Z" fill="#0014CB"/>
<rect x="563" y="762" width="92" height="65" rx="10" fill="#131212"/>
<rect x="439" y="762" width="92" height="65" rx="10" fill="#131212"/>
<rect x="807" y="762" width="92" height="65" rx="10" fill="#131212"/>
<g filter="url(#filter0_d_2:2)">
<path d="M816.12 787H817.88L820.28 799.24L822.86 787H824.58L821.44 801H819.06L816.12 787ZM830.321 799.54V788.46H828.521V787H833.861V788.46H832.061V799.54H833.861V801H828.521V799.54H830.321ZM839.802 801H838.182V787H841.022L844.182 799.52V787H845.802V801H842.942L839.802 788.48V801ZM851.922 801V788.52H848.742V787H856.842V788.52H853.662V801H851.922ZM861.663 797.46L860.883 801H859.103L862.483 787H864.783L868.103 801H866.323L865.563 797.46H861.663ZM865.243 795.96L863.603 788.32L861.983 795.96H865.243ZM874.484 801C873.324 801 872.431 800.72 871.804 800.16C871.191 799.587 870.884 798.733 870.884 797.6V790.4C870.884 789.267 871.191 788.42 871.804 787.86C872.431 787.287 873.324 787 874.484 787H877.304V788.52H874.284C873.791 788.52 873.391 788.667 873.084 788.96C872.777 789.253 872.624 789.607 872.624 790.02V797.98C872.624 798.393 872.777 798.747 873.084 799.04C873.391 799.333 873.791 799.48 874.284 799.48H876.244V795.14H874.504V793.64H877.904V801H874.484ZM888.545 787V788.46H883.605V793.04H888.045V794.5H883.605V799.54H888.545V801H881.865V787H888.545Z" fill="white"/>
</g>
<rect x="1055" y="762" width="92" height="65" rx="10" fill="#131212"/>
<g filter="url(#filter1_d_2:2)">
<path d="M1064.12 787H1065.88L1068.28 799.24L1070.86 787H1072.58L1069.44 801H1067.06L1064.12 787ZM1078.32 799.54V788.46H1076.52V787H1081.86V788.46H1080.06V799.54H1081.86V801H1076.52V799.54H1078.32ZM1087.8 801H1086.18V787H1089.02L1092.18 799.52V787H1093.8V801H1090.94L1087.8 788.48V801ZM1099.92 801V788.52H1096.74V787H1104.84V788.52H1101.66V801H1099.92ZM1109.66 797.46L1108.88 801H1107.1L1110.48 787H1112.78L1116.1 801H1114.32L1113.56 797.46H1109.66ZM1113.24 795.96L1111.6 788.32L1109.98 795.96H1113.24ZM1122.48 801C1121.32 801 1120.43 800.72 1119.8 800.16C1119.19 799.587 1118.88 798.733 1118.88 797.6V790.4C1118.88 789.267 1119.19 788.42 1119.8 787.86C1120.43 787.287 1121.32 787 1122.48 787H1125.3V788.52H1122.28C1121.79 788.52 1121.39 788.667 1121.08 788.96C1120.78 789.253 1120.62 789.607 1120.62 790.02V797.98C1120.62 798.393 1120.78 798.747 1121.08 799.04C1121.39 799.333 1121.79 799.48 1122.28 799.48H1124.24V795.14H1122.5V793.64H1125.9V801H1122.48ZM1136.54 787V788.46H1131.6V793.04H1136.04V794.5H1131.6V799.54H1136.54V801H1129.86V787H1136.54Z" fill="white"/>
</g>
<rect x="931" y="762" width="92" height="65" rx="10" fill="#131212"/>
<g filter="url(#filter2_d_2:2)">
<path d="M959.04 787V799.48H963.5V801H957.3V787H959.04ZM975.201 797.6C975.201 798.733 974.887 799.587 974.261 800.16C973.647 800.72 972.761 801 971.601 801H970.801C969.641 801 968.747 800.72 968.121 800.16C967.507 799.587 967.201 798.733 967.201 797.6V790.4C967.201 789.267 967.507 788.42 968.121 787.86C968.747 787.287 969.641 787 970.801 787H971.601C972.761 787 973.647 787.287 974.261 787.86C974.887 788.42 975.201 789.267 975.201 790.4V797.6ZM973.461 790.02C973.461 789.607 973.307 789.253 973.001 788.96C972.694 788.667 972.294 788.52 971.801 788.52H970.601C970.107 788.52 969.707 788.667 969.401 788.96C969.094 789.253 968.941 789.607 968.941 790.02V797.98C968.941 798.393 969.094 798.747 969.401 799.04C969.707 799.333 970.107 799.48 970.601 799.48H971.801C972.294 799.48 972.694 799.333 973.001 799.04C973.307 798.747 973.461 798.393 973.461 797.98V790.02ZM982.802 796.3H981.142L979.182 788.44V801H977.662V787H980.442L982.042 794.16L983.662 787H986.362V801H984.802V788.44L982.802 796.3ZM996.802 797.6C996.802 798.733 996.489 799.587 995.862 800.16C995.249 800.72 994.362 801 993.202 801H992.402C991.242 801 990.349 800.72 989.722 800.16C989.109 799.587 988.802 798.733 988.802 797.6V790.4C988.802 789.267 989.109 788.42 989.722 787.86C990.349 787.287 991.242 787 992.402 787H993.202C994.362 787 995.249 787.287 995.862 787.86C996.489 788.42 996.802 789.267 996.802 790.4V797.6ZM995.062 790.02C995.062 789.607 994.909 789.253 994.602 788.96C994.296 788.667 993.896 788.52 993.402 788.52H992.202C991.709 788.52 991.309 788.667 991.002 788.96C990.696 789.253 990.542 789.607 990.542 790.02V797.98C990.542 798.393 990.696 798.747 991.002 799.04C991.309 799.333 991.709 799.48 992.202 799.48H993.402C993.896 799.48 994.296 799.333 994.602 799.04C994.909 798.747 995.062 798.393 995.062 797.98V790.02Z" fill="white"/>
</g>
<rect x="315" y="762" width="92" height="65" rx="10" fill="#131212"/>
<path d="M727.5 777.5H750V782.5H727.5V777.5ZM700 782.5H717.5V787.5H722.5V772.5H717.5V777.5H700V782.5ZM717.5 807.5H750V812.5H717.5V807.5ZM742.5 792.5H750V797.5H742.5V792.5ZM737.5 802.5V787.53H732.5V792.5H700V797.5H732.5V802.5H737.5ZM712.5 817.5V802.5H707.5V807.5H700V812.5H707.5V817.5H712.5Z" fill="#E7E5E5"/>
<path d="M860.156 903.578C859.481 901.986 858.655 900.463 857.691 899.028L852.509 902.525C854.003 904.745 855.05 907.234 855.594 909.853C856.148 912.584 856.148 915.398 855.594 918.128C855.322 919.447 854.92 920.736 854.394 921.975C853.882 923.193 853.251 924.357 852.509 925.45C851.028 927.634 849.145 929.517 846.959 930.997C844.741 932.489 842.255 933.537 839.637 934.081C836.908 934.628 834.098 934.628 831.369 934.081C827.441 933.274 823.836 931.331 821.003 928.494C819.132 926.621 817.638 924.406 816.603 921.969C816.081 920.729 815.681 919.442 815.409 918.125C814.584 914.058 815 909.837 816.603 906.009C817.634 903.573 819.127 901.359 821 899.491C822.872 897.622 825.085 896.13 827.519 895.094C828.753 894.572 830.05 894.169 831.362 893.9C831.697 893.831 832.037 893.8 832.375 893.747V903.25L848 890.75L832.375 878.25V887.431C831.615 887.515 830.859 887.631 830.109 887.778C826.685 888.48 823.432 889.85 820.537 891.809C815.395 895.278 811.617 900.425 809.849 906.371C808.081 912.316 808.433 918.691 810.844 924.406C812.186 927.588 814.134 930.479 816.578 932.919C819.019 935.355 821.906 937.3 825.081 938.647C830.073 940.759 835.589 941.303 840.897 940.206C845.146 939.328 849.118 937.431 852.472 934.679C855.826 931.927 858.462 928.402 860.153 924.406C860.841 922.781 861.369 921.091 861.716 919.381C862.44 915.824 862.44 912.157 861.716 908.6C861.36 906.88 860.837 905.198 860.156 903.578V903.578Z" fill="white"/>
<path d="M627.375 900.125H614.875V881.375H596.125V900.125H583.625L605.5 925.125L627.375 900.125ZM580.5 931.375H630.5V937.625H580.5V931.375Z" fill="white"/>
<path d="M497.5 786.669H493.333V786.667H491.25V780.415C491.257 779.598 491.099 778.788 490.786 778.034C490.474 777.279 490.012 776.595 489.429 776.023C488.789 775.364 488.01 774.858 487.148 774.541C486.286 774.224 485.364 774.105 484.45 774.192C481.254 774.467 478.75 777.308 478.75 780.66V786.667H472.5C470.202 786.667 468.333 788.535 468.333 790.833V813.75C468.333 814.303 468.553 814.832 468.944 815.223C469.334 815.614 469.864 815.833 470.417 815.833H499.583C500.136 815.833 500.666 815.614 501.056 815.223C501.447 814.832 501.667 814.303 501.667 813.75V790.835C501.667 788.538 499.798 786.669 497.5 786.669ZM472.5 795V790.833H482.917V780.66C482.917 779.473 483.765 778.431 485.004 778.333C485.558 778.333 486.071 778.548 486.487 778.973C486.679 779.161 486.83 779.385 486.932 779.633C487.035 779.881 487.086 780.147 487.083 780.415V790.833H489.156L489.167 790.835H497.5V795H472.5Z" fill="white"/>
<path d="M380.888 794.262L375.583 788.96V781.458C375.583 781.182 375.474 780.917 375.278 780.722C375.083 780.526 374.818 780.417 374.542 780.417H367.04L361.735 775.112C361.54 774.917 361.275 774.807 360.999 774.807C360.723 774.807 360.458 774.917 360.263 775.112L354.96 780.417H347.458C347.182 780.417 346.917 780.526 346.722 780.722C346.526 780.917 346.417 781.182 346.417 781.458V788.96L341.113 794.265C340.917 794.46 340.808 794.725 340.808 795.001C340.808 795.277 340.917 795.542 341.113 795.737L346.417 801.04V808.542C346.417 808.818 346.526 809.083 346.722 809.278C346.917 809.474 347.182 809.583 347.458 809.583H354.96L360.265 814.887C360.46 815.083 360.725 815.192 361.001 815.192C361.277 815.192 361.542 815.083 361.738 814.887L367.04 809.583H374.542C374.818 809.583 375.083 809.474 375.278 809.278C375.474 809.083 375.583 808.818 375.583 808.542V801.04L380.888 795.735C381.083 795.54 381.192 795.275 381.192 794.999C381.192 794.723 381.083 794.458 380.888 794.262V794.262ZM361 786.667C363.21 786.667 365.33 787.545 366.893 789.107C368.455 790.67 369.333 792.79 369.333 795C369.333 797.21 368.455 799.33 366.893 800.893C365.33 802.455 363.21 803.333 361 803.333" fill="white"/>
<g opacity="0.5" clip-path="url(#clip0_2:2)">
<path d="M890.759 569.936C895.417 560.737 898.702 550.725 897.147 540.817C896.614 537.457 895.454 534.19 893.71 531.135C892.306 528.646 890.492 526.335 888.322 524.272C887.572 523.544 886.542 523.062 885.413 522.909C884.284 522.756 883.127 522.942 882.145 523.434C881.993 523.508 881.841 523.587 881.7 523.671C880.94 524.123 880.339 524.741 879.965 525.46C879.892 525.597 879.832 525.739 879.783 525.883C879.569 526.488 879.511 527.125 879.614 527.751C880.433 532.85 880.256 538.028 879.088 543.079C878.79 544.364 878.426 545.639 877.995 546.902C877.028 545.884 876 544.909 874.915 543.98C872.102 541.577 868.858 539.562 865.301 538.009H865.295C865.278 537.999 865.266 537.994 865.249 537.984C860.935 536.131 855.185 536.9 851.824 538.161C851.602 538.24 851.392 538.329 851.187 538.413C849.434 539.171 848.563 540.043 849.311 540.615C849.481 540.738 849.65 540.866 849.808 540.994C854.902 544.965 859.076 549.7 862.116 554.958V554.962C863.324 557.056 864.342 559.223 865.161 561.446C866.289 564.516 867.224 567.921 869.427 570.423C869.653 570.687 869.897 570.939 870.158 571.177L889.842 571.044C889.888 571.025 889.929 571.01 889.976 570.99L890.759 571.015C890.73 570.896 890.695 570.778 890.66 570.66V570.65C890.642 570.586 890.619 570.517 890.601 570.458C890.584 570.409 890.572 570.364 890.56 570.325C890.595 570.251 890.631 570.182 890.671 570.108C890.701 570.049 890.73 569.995 890.759 569.936Z" fill="#F0F0F0"/>
<path d="M890.66 570.65C890.654 570.687 890.636 570.722 890.61 570.752C890.583 570.781 890.548 570.805 890.507 570.82C890.467 570.834 890.422 570.84 890.379 570.836C890.335 570.833 890.293 570.819 890.256 570.798C889.448 570.303 888.56 569.907 887.621 569.62C887.615 569.615 887.615 569.62 887.615 569.62C886.429 569.261 885.209 568.987 883.968 568.802C883.956 568.802 883.95 568.798 883.939 568.798C883.436 568.714 882.933 568.64 882.431 568.561C879.988 568.182 877.504 567.723 875.388 566.551C874.527 566.101 873.789 565.503 873.222 564.796C872.655 564.088 872.272 563.288 872.098 562.447C871.788 560.796 872.18 559.136 872.344 557.49C872.355 557.372 872.367 557.249 872.373 557.13C872.384 556.978 872.39 556.83 872.39 556.682C872.45 555.188 872.094 553.703 871.35 552.346C870.394 550.722 869.14 549.235 867.633 547.942C866.856 547.237 866.045 546.559 865.202 545.907H865.196C865.161 545.877 865.132 545.852 865.097 545.828C865.097 545.823 865.091 545.818 865.085 545.813C861.478 543.051 857.388 540.774 852.958 539.063C852.8 539.004 852.636 538.94 852.473 538.881C852.046 538.718 851.62 538.565 851.187 538.413C851.392 538.329 851.602 538.24 851.824 538.161C856.765 539.923 861.325 542.364 865.319 545.384C865.453 545.483 865.588 545.586 865.716 545.69C866.727 546.478 867.69 547.304 868.603 548.168C870.064 549.495 871.248 551.021 872.104 552.681C872.732 554.025 873.009 555.467 872.916 556.909C872.905 557.185 872.881 557.46 872.852 557.741C872.671 559.402 872.268 561.116 872.718 562.777C873.232 564.669 874.974 565.989 876.996 566.797C878.334 567.3 879.739 567.667 881.18 567.891C884.161 568.418 887.241 568.674 889.847 570.024H889.853C889.894 570.049 889.935 570.069 889.97 570.088C889.976 570.088 889.976 570.088 889.976 570.093C890.164 570.188 890.346 570.291 890.519 570.404C890.531 570.409 890.543 570.419 890.554 570.423C890.571 570.434 890.587 570.445 890.601 570.458C890.628 570.484 890.648 570.515 890.658 570.548C890.668 570.582 890.669 570.616 890.66 570.65Z" fill="white"/>
<path d="M865.562 545.859C866.625 544.748 867.184 543.356 867.141 541.93C867.097 540.504 866.454 539.138 865.326 538.075C865.097 537.86 864.691 538.15 864.92 538.365C865.973 539.353 866.572 540.626 866.609 541.954C866.646 543.282 866.119 544.577 865.123 545.606C864.907 545.83 865.348 546.081 865.562 545.859Z" fill="white"/>
<path d="M872.56 556.667C869.124 557.004 865.664 556.236 862.87 554.518C862.593 554.347 862.294 554.718 862.57 554.889C865.482 556.672 869.085 557.465 872.659 557.108C873 557.073 872.898 556.633 872.56 556.667Z" fill="white"/>
<path d="M852.993 539.009C852.981 539.029 852.97 539.043 852.958 539.063C852.636 539.562 852.186 539.994 851.641 540.328C851.096 540.662 850.47 540.89 849.808 540.994C849.65 540.866 849.481 540.738 849.311 540.615C849.338 540.601 849.368 540.593 849.399 540.59C850.035 540.531 850.646 540.346 851.18 540.048C851.715 539.751 852.158 539.351 852.473 538.881C852.502 538.841 852.531 538.797 852.555 538.758C852.574 538.733 852.599 538.712 852.628 538.696C852.657 538.68 852.69 538.669 852.724 538.663C852.758 538.658 852.794 538.658 852.828 538.664C852.862 538.67 852.894 538.682 852.923 538.698C852.979 538.733 853.018 538.784 853.031 538.842C853.044 538.9 853.03 538.959 852.993 539.009Z" fill="white"/>
<path d="M558.816 299.682C548.308 299.692 538.234 303.215 530.803 309.48C523.373 315.744 519.193 324.237 519.181 333.096V461.149C519.193 470.008 523.373 478.501 530.803 484.765C538.234 491.029 548.308 494.553 558.816 494.563H912.184C922.692 494.553 932.766 491.029 940.197 484.765C947.627 478.501 951.807 470.008 951.819 461.149V333.096C951.807 324.237 947.627 315.744 940.197 309.48C932.766 303.215 922.692 299.692 912.184 299.682H558.816Z" fill="white"/>
<path d="M912.184 497.245H558.816C547.465 497.234 536.582 493.428 528.555 486.661C520.528 479.894 516.013 470.719 516 461.149V333.096C516.013 323.526 520.528 314.351 528.555 307.584C536.582 300.817 547.465 297.011 558.816 297H912.184C923.535 297.011 934.419 300.817 942.445 307.584C950.472 314.351 954.987 323.526 955 333.096V461.149C954.987 470.719 950.472 479.894 942.445 486.661C934.419 493.428 923.535 497.234 912.184 497.245V497.245ZM558.816 302.364C549.151 302.373 539.886 305.614 533.052 311.375C526.217 317.137 522.373 324.948 522.362 333.096V461.149C522.373 469.297 526.217 477.108 533.052 482.87C539.886 488.631 549.151 491.872 558.816 491.881H912.184C921.849 491.872 931.114 488.631 937.949 482.87C944.783 477.108 948.627 469.297 948.638 461.149V333.096C948.627 324.948 944.783 317.137 937.949 311.375C931.114 305.614 921.849 302.373 912.184 302.364H558.816Z" fill="#E6E6E6"/>
<path d="M736.449 326.194H568.399C564.812 326.199 561.374 327.403 558.838 329.541C556.302 331.679 554.874 334.577 554.868 337.601V401.5C554.867 402.178 554.941 402.855 555.091 403.521C555.144 403.825 555.229 404.12 555.314 404.415C556.083 406.846 557.783 408.996 560.148 410.531C562.514 412.067 565.413 412.902 568.399 412.907H736.449C736.725 412.907 737 412.898 737.265 412.88H737.456V412.871C737.509 412.873 737.563 412.87 737.615 412.862C737.668 412.862 737.732 412.853 737.785 412.853C737.803 412.855 737.822 412.852 737.838 412.845C737.955 412.836 738.071 412.827 738.177 412.818C738.368 412.791 738.559 412.773 738.739 412.746C738.763 412.739 738.788 412.736 738.813 412.737C738.846 412.724 738.883 412.717 738.92 412.719C738.924 412.716 738.929 412.713 738.934 412.712C738.94 412.71 738.946 412.71 738.951 412.71C739.068 412.693 739.185 412.675 739.301 412.648C739.366 412.64 739.43 412.628 739.492 412.612C739.725 412.567 739.959 412.523 740.181 412.46C740.287 412.433 740.383 412.415 740.489 412.389C740.627 412.353 740.775 412.308 740.913 412.263C740.985 412.247 741.056 412.226 741.125 412.201C741.133 412.201 741.141 412.199 741.149 412.196C741.156 412.193 741.162 412.188 741.168 412.183C741.474 412.092 741.775 411.987 742.069 411.87C742.323 411.772 742.567 411.665 742.811 411.557C742.907 411.522 742.991 411.477 743.087 411.432C743.11 411.423 743.132 411.411 743.15 411.396C743.394 411.271 743.638 411.146 743.872 411.03C743.882 411.021 743.882 411.012 743.893 411.012C743.894 411.012 743.896 411.012 743.897 411.011C743.898 411.011 743.899 411.01 743.9 411.009C743.901 411.009 743.902 411.008 743.903 411.006C743.903 411.005 743.903 411.004 743.903 411.003C744.153 410.871 744.393 410.728 744.624 410.574H744.635C744.699 410.529 744.752 410.493 744.805 410.458C744.879 410.413 744.953 410.359 745.017 410.315C745.144 410.225 745.271 410.136 745.388 410.046C745.46 410.001 745.527 409.95 745.589 409.895C745.77 409.76 745.939 409.617 746.109 409.474C746.199 409.401 746.284 409.324 746.363 409.242C746.495 409.135 746.619 409.022 746.735 408.902C746.841 408.786 746.957 408.67 747.063 408.554C747.189 408.432 747.306 408.303 747.413 408.169C747.604 407.955 747.774 407.74 747.943 407.508C748.081 407.32 748.219 407.123 748.346 406.927C748.41 406.828 748.474 406.721 748.537 406.614C748.548 406.614 748.548 406.605 748.548 406.596C748.664 406.408 748.77 406.22 748.866 406.024C748.908 405.943 748.951 405.872 748.983 405.791C749.067 405.639 749.131 405.478 749.205 405.318C749.322 405.022 749.439 404.719 749.534 404.415C749.619 404.12 749.704 403.825 749.757 403.521C749.906 402.855 749.981 402.178 749.979 401.5V337.601C749.973 334.577 748.546 331.679 746.01 329.541C743.473 327.403 740.035 326.199 736.449 326.194V326.194Z" fill="white"/>
<path opacity="0.3" d="M749.979 344.52H554.868V345.414H749.979V344.52Z" fill="white"/>
<path opacity="0.3" d="M749.979 354.353H554.868V355.247H749.979V354.353Z" fill="white"/>
<path opacity="0.3" d="M749.979 364.187H554.868V365.081H749.979V364.187Z" fill="white"/>
<path opacity="0.3" d="M749.979 374.02H554.868V374.914H749.979V374.02Z" fill="white"/>
<path opacity="0.3" d="M749.979 383.854H554.868V384.748H749.979V383.854Z" fill="white"/>
<path opacity="0.3" d="M749.979 393.687H554.868V394.581H749.979V393.687Z" fill="white"/>
<path opacity="0.3" d="M749.757 403.521C749.704 403.825 749.619 404.12 749.534 404.415H555.017C554.953 404.119 554.91 403.82 554.889 403.521H749.757Z" fill="white"/>
<g opacity="0.1">
<path opacity="0.1" d="M749.979 387.662V401.5C749.981 402.178 749.906 402.855 749.757 403.521C749.704 403.825 749.619 404.12 749.534 404.415C749.439 404.718 749.322 405.022 749.205 405.317C749.131 405.478 749.067 405.639 748.983 405.791C748.951 405.872 748.908 405.943 748.866 406.024C748.77 406.22 748.664 406.408 748.548 406.596C748.548 406.605 748.548 406.614 748.537 406.614C748.474 406.721 748.41 406.828 748.346 406.927C748.219 407.123 748.081 407.32 747.943 407.508C747.774 407.74 747.604 407.955 747.413 408.169C747.306 408.303 747.189 408.431 747.063 408.554C746.957 408.67 746.841 408.786 746.735 408.902C746.619 409.022 746.495 409.135 746.363 409.242C746.284 409.324 746.199 409.401 746.109 409.474C745.939 409.617 745.77 409.76 745.589 409.894C745.527 409.95 745.46 410.001 745.388 410.046C745.271 410.136 745.144 410.225 745.017 410.315C744.953 410.359 744.879 410.413 744.805 410.458C744.752 410.493 744.699 410.529 744.635 410.574H744.624C744.393 410.728 744.153 410.871 743.903 411.003C743.903 411.004 743.903 411.005 743.903 411.006C743.902 411.007 743.901 411.008 743.9 411.009C743.899 411.01 743.898 411.011 743.897 411.011C743.896 411.012 743.894 411.012 743.893 411.012C743.882 411.012 743.882 411.021 743.872 411.03C743.723 411.119 743.564 411.2 743.405 411.28C743.32 411.325 743.235 411.36 743.15 411.396C743.132 411.411 743.11 411.423 743.087 411.432C742.991 411.477 742.907 411.521 742.811 411.557C742.567 411.664 742.323 411.772 742.069 411.87C741.775 411.987 741.474 412.092 741.168 412.183C741.162 412.188 741.156 412.193 741.149 412.196C741.141 412.199 741.133 412.201 741.125 412.201C741.056 412.226 740.985 412.247 740.913 412.263C740.775 412.308 740.627 412.353 740.489 412.389C740.383 412.415 740.287 412.433 740.181 412.46C739.959 412.523 739.725 412.567 739.492 412.612C739.43 412.628 739.366 412.64 739.301 412.648C739.185 412.675 739.068 412.692 738.951 412.71C738.946 412.71 738.94 412.71 738.934 412.712C738.929 412.713 738.924 412.716 738.92 412.719C738.883 412.717 738.846 412.723 738.813 412.737C738.788 412.736 738.763 412.739 738.739 412.746C738.559 412.773 738.368 412.791 738.177 412.818C738.071 412.827 737.955 412.835 737.838 412.844C737.822 412.852 737.803 412.855 737.785 412.853C737.668 412.862 737.562 412.871 737.456 412.88H737.435C737.318 412.889 737.202 412.889 737.085 412.898C736.873 412.907 736.661 412.907 736.449 412.907H568.399C565.413 412.901 562.514 412.066 560.148 410.531C557.783 408.996 556.083 406.846 555.314 404.414H555.017C554.953 404.119 554.91 403.82 554.889 403.521C554.879 403.351 554.868 403.172 554.868 403.002V387.412C557.094 387.467 559.301 387.771 561.432 388.314C567.201 389.798 572.81 392.31 578.833 392.31C579.31 392.31 579.809 392.293 580.296 392.257C586.637 391.81 591.568 388.493 595.672 384.748C596.001 384.453 596.329 384.158 596.637 383.854C597.411 383.13 598.153 382.388 598.874 381.655C601.178 379.202 603.76 376.944 606.583 374.914C607.039 374.601 607.495 374.306 607.962 374.02C610.7 372.299 613.924 371.211 617.314 370.865C617.749 370.829 618.184 370.802 618.619 370.793C623.157 370.677 627.42 372.054 631.301 374.02C631.863 374.306 632.425 374.601 632.966 374.914C634.821 375.975 636.609 377.118 638.321 378.338C640.963 380.295 643.724 382.136 646.592 383.854C646.804 383.979 647.016 384.104 647.228 384.211C647.557 384.399 647.896 384.578 648.235 384.748C651.14 386.322 654.407 387.361 657.821 387.796C657.938 387.814 658.065 387.832 658.192 387.841C663.717 388.386 668.86 387.009 673.557 384.748C674.14 384.462 674.734 384.167 675.307 383.854C678.976 381.798 682.416 379.464 685.582 376.881C686.409 376.228 687.247 375.567 688.116 374.914C688.509 374.619 688.901 374.315 689.304 374.02C695.603 369.354 702.866 365.081 711.445 365.081C711.805 365.081 712.177 365.09 712.548 365.108C718.719 365.358 724.138 367.879 728.687 371.079C730.008 372.003 731.272 372.985 732.472 374.02C732.525 374.065 732.568 374.101 732.621 374.145C732.918 374.396 733.215 374.655 733.49 374.914C736.884 377.909 740.012 381.109 743.702 383.854C744.105 384.167 744.518 384.462 744.942 384.748C746.215 385.638 747.562 386.451 748.972 387.179C749.301 387.349 749.64 387.51 749.979 387.662Z" fill="black"/>
</g>
<g opacity="0.1">
<path opacity="0.1" d="M749.979 374.154V401.5C749.981 402.178 749.906 402.855 749.757 403.521C749.704 403.824 749.619 404.119 749.534 404.415C749.439 404.718 749.322 405.022 749.205 405.317C749.131 405.478 749.067 405.639 748.983 405.791C748.951 405.872 748.908 405.943 748.866 406.024C748.77 406.22 748.664 406.408 748.548 406.596C748.548 406.605 748.548 406.614 748.537 406.614C748.474 406.721 748.41 406.828 748.346 406.927C748.219 407.123 748.081 407.32 747.943 407.508C747.774 407.74 747.604 407.955 747.413 408.169C747.306 408.303 747.189 408.431 747.063 408.554C746.957 408.67 746.841 408.786 746.735 408.902C746.619 409.022 746.495 409.135 746.363 409.242C746.284 409.324 746.199 409.401 746.109 409.474C745.939 409.617 745.77 409.76 745.589 409.894C745.527 409.95 745.46 410.001 745.388 410.046C745.271 410.136 745.144 410.225 745.017 410.315C744.953 410.359 744.879 410.413 744.805 410.458C744.752 410.493 744.699 410.529 744.635 410.574H744.624C744.393 410.728 744.153 410.871 743.903 411.003C743.903 411.004 743.903 411.005 743.903 411.006C743.902 411.007 743.901 411.008 743.9 411.009C743.899 411.01 743.898 411.011 743.897 411.011C743.896 411.012 743.894 411.012 743.893 411.012C743.882 411.012 743.882 411.021 743.872 411.03C743.723 411.119 743.564 411.2 743.405 411.28C743.32 411.325 743.235 411.36 743.15 411.396C743.132 411.411 743.11 411.423 743.087 411.432C742.991 411.477 742.907 411.521 742.811 411.557C742.567 411.664 742.323 411.772 742.069 411.87C741.775 411.987 741.474 412.092 741.168 412.183C741.162 412.188 741.156 412.193 741.149 412.196C741.141 412.199 741.133 412.201 741.125 412.201C741.056 412.226 740.985 412.247 740.913 412.263C740.775 412.308 740.627 412.353 740.489 412.388C740.383 412.415 740.287 412.433 740.181 412.46C739.959 412.523 739.725 412.567 739.492 412.612C739.43 412.628 739.366 412.64 739.301 412.648C739.185 412.675 739.068 412.692 738.951 412.71C738.946 412.71 738.94 412.71 738.934 412.712C738.929 412.713 738.924 412.716 738.92 412.719C738.883 412.717 738.846 412.723 738.813 412.737C738.788 412.736 738.763 412.739 738.739 412.746C738.559 412.773 738.368 412.791 738.177 412.818C738.071 412.827 737.955 412.835 737.838 412.844C737.822 412.852 737.803 412.855 737.785 412.853C737.732 412.853 737.668 412.862 737.615 412.862C737.563 412.87 737.509 412.873 737.456 412.871C737.411 412.879 737.365 412.882 737.318 412.88H737.265C737.212 412.889 737.149 412.889 737.085 412.898C736.873 412.907 736.661 412.907 736.449 412.907H568.399C565.413 412.901 562.514 412.066 560.148 410.531C557.783 408.996 556.083 406.846 555.314 404.414C555.229 404.119 555.144 403.824 555.091 403.52C554.941 402.854 554.867 402.178 554.868 401.5V385.579C555.239 385.311 555.6 385.034 555.96 384.748C556.332 384.453 556.692 384.158 557.053 383.854C560.211 381.082 563.088 378.092 565.652 374.914C565.737 374.816 565.822 374.726 565.896 374.628C566.066 374.423 566.236 374.226 566.416 374.02C568.988 370.847 571.864 367.857 575.016 365.081C575.376 364.777 575.737 364.482 576.108 364.187C580.052 361.058 584.548 358.725 589.85 358.17C597.156 357.402 603.953 360.253 609.966 364.187C610.411 364.482 610.846 364.777 611.281 365.081C613.338 366.493 615.289 368.031 617.134 369.559C617.622 369.971 618.12 370.382 618.619 370.793C619.902 371.875 621.217 372.956 622.542 374.02C622.924 374.324 623.295 374.619 623.677 374.914C628.979 379.053 634.715 382.692 641.534 383.854C642 383.934 642.477 384.006 642.955 384.059C645.531 384.348 648.146 384.279 650.695 383.854C651.12 383.791 651.533 383.711 651.957 383.621C658.341 382.289 664.258 378.937 669.613 374.914C669.994 374.619 670.387 374.324 670.768 374.02C673.504 371.884 676.102 369.595 678.53 367.342C679.336 366.592 680.163 365.832 680.991 365.081C681.33 364.786 681.659 364.491 681.987 364.187C685.536 360.926 689.418 357.935 693.588 355.247C694.086 354.934 694.585 354.639 695.083 354.353C700.693 351.126 706.822 349.052 713.555 349.383C719.111 349.651 724.191 351.582 728.761 354.353C729.228 354.639 729.694 354.934 730.161 355.247C733.639 357.603 736.813 360.261 739.63 363.177C739.959 363.507 740.287 363.847 740.616 364.187C740.786 364.357 740.945 364.535 741.115 364.705L741.464 365.081C744.274 368.04 746.978 371.115 749.852 374.02L749.979 374.154Z" fill="black"/>
</g>
<g opacity="0.1">
<path opacity="0.1" d="M749.979 362.864V401.5C749.981 402.178 749.906 402.855 749.757 403.521C749.704 403.825 749.619 404.12 749.534 404.415C749.439 404.718 749.322 405.022 749.205 405.317C749.131 405.478 749.067 405.639 748.983 405.791C748.951 405.872 748.908 405.943 748.866 406.024C748.77 406.22 748.664 406.408 748.548 406.596C748.548 406.605 748.548 406.614 748.537 406.614C748.474 406.721 748.41 406.828 748.346 406.927C748.219 407.123 748.081 407.32 747.943 407.508C747.774 407.74 747.604 407.955 747.413 408.169C747.306 408.303 747.189 408.431 747.063 408.554C746.957 408.67 746.841 408.786 746.735 408.902C746.619 409.022 746.495 409.135 746.363 409.242C746.284 409.324 746.199 409.401 746.109 409.474C745.939 409.617 745.77 409.76 745.589 409.894C745.527 409.95 745.46 410.001 745.388 410.046C745.271 410.136 745.144 410.225 745.017 410.315C744.953 410.359 744.879 410.413 744.805 410.458C744.752 410.493 744.699 410.529 744.635 410.574H744.624C744.393 410.728 744.153 410.871 743.903 411.003C743.903 411.004 743.903 411.005 743.903 411.006C743.902 411.008 743.901 411.009 743.9 411.009C743.899 411.01 743.898 411.011 743.897 411.011C743.896 411.012 743.894 411.012 743.893 411.012C743.882 411.012 743.882 411.021 743.872 411.03C743.723 411.119 743.564 411.2 743.405 411.28C743.32 411.325 743.235 411.36 743.15 411.396C743.132 411.411 743.11 411.423 743.087 411.432C742.991 411.477 742.907 411.521 742.811 411.557C742.567 411.664 742.323 411.772 742.069 411.87C741.775 411.987 741.474 412.092 741.168 412.183C741.162 412.188 741.156 412.193 741.149 412.196C741.141 412.199 741.133 412.201 741.125 412.201C741.056 412.226 740.985 412.247 740.913 412.263C740.775 412.308 740.627 412.353 740.489 412.389C740.383 412.415 740.287 412.433 740.181 412.46C739.959 412.523 739.725 412.567 739.492 412.612C739.43 412.628 739.366 412.64 739.301 412.648C739.185 412.675 739.068 412.692 738.951 412.71C738.946 412.71 738.94 412.71 738.934 412.712C738.929 412.713 738.924 412.716 738.92 412.719C738.883 412.717 738.846 412.723 738.813 412.737C738.788 412.736 738.763 412.739 738.739 412.746C738.559 412.773 738.368 412.791 738.177 412.818C738.071 412.827 737.955 412.835 737.838 412.844C737.822 412.852 737.803 412.855 737.785 412.853C737.732 412.853 737.668 412.862 737.615 412.862C737.563 412.87 737.509 412.873 737.456 412.871C737.45 412.876 737.443 412.879 737.435 412.88H737.265C737 412.898 736.725 412.907 736.449 412.907H568.399C565.413 412.901 562.514 412.066 560.148 410.531C557.783 408.996 556.083 406.846 555.314 404.414C555.229 404.119 555.144 403.824 555.091 403.521C554.941 402.855 554.867 402.178 554.868 401.5V378.418C555.939 377.247 557.014 376.079 558.092 374.914C558.367 374.61 558.643 374.315 558.919 374.02C560.372 372.447 561.835 370.891 563.341 369.372C564.783 367.915 566.299 366.475 567.879 365.081C568.219 364.786 568.558 364.482 568.908 364.187C572.93 360.654 577.551 357.641 582.619 355.247C583.308 354.926 584.008 354.63 584.718 354.353C588.48 352.839 592.551 351.944 596.711 351.716C602.169 351.486 607.609 352.392 612.553 354.353C613.296 354.622 614.027 354.926 614.748 355.247C619.934 357.5 624.801 360.656 629.36 364.187C629.753 364.473 630.124 364.777 630.506 365.081C634.122 367.941 637.547 371.008 640.813 374.02C641.056 374.244 641.3 374.476 641.544 374.7C641.618 374.771 641.703 374.843 641.778 374.914C644.959 377.864 648.352 380.85 651.957 383.621C652.053 383.702 652.159 383.773 652.265 383.854C652.657 384.158 653.049 384.453 653.452 384.748C654.873 385.811 656.337 386.831 657.821 387.796C661.339 390.132 665.173 392.109 669.242 393.687C670.1 394.018 670.97 394.313 671.85 394.581C676.698 396.142 681.931 396.664 687.077 396.101C689.441 395.825 691.758 395.315 693.98 394.581C694.829 394.313 695.656 394.009 696.472 393.687C701.848 391.542 706.705 388.297 711.307 384.748C711.689 384.453 712.071 384.158 712.452 383.854C715.071 381.78 717.616 379.625 720.129 377.542C721.19 376.666 722.271 375.781 723.385 374.914C723.767 374.619 724.159 374.324 724.551 374.02C725.887 373.01 727.266 372.018 728.687 371.079C732.16 368.683 735.98 366.667 740.054 365.081C740.404 364.947 740.765 364.821 741.114 364.705C741.655 364.518 742.196 364.348 742.737 364.187C745.072 363.481 747.507 363.037 749.979 362.864Z" fill="black"/>
</g>
<path d="M596.754 357.035C598.51 357.035 599.935 355.835 599.935 354.353C599.935 352.872 598.51 351.672 596.754 351.672C594.997 351.672 593.572 352.872 593.572 354.353C593.572 355.835 594.997 357.035 596.754 357.035Z" fill="white"/>
<path d="M645.531 386.536C647.288 386.536 648.712 385.335 648.712 383.854C648.712 382.373 647.288 381.172 645.531 381.172C643.774 381.172 642.35 382.373 642.35 383.854C642.35 385.335 643.774 386.536 645.531 386.536Z" fill="white"/>
<path d="M711.275 366.869C713.032 366.869 714.456 365.668 714.456 364.187C714.456 362.706 713.032 361.505 711.275 361.505C709.518 361.505 708.094 362.706 708.094 364.187C708.094 365.668 709.518 366.869 711.275 366.869Z" fill="white"/>
<path d="M855.976 387.069H780.965C780.609 387.068 780.257 387.127 779.928 387.241C779.599 387.356 779.3 387.524 779.048 387.736C778.797 387.948 778.597 388.199 778.461 388.477C778.324 388.754 778.254 389.051 778.254 389.35C778.254 389.65 778.324 389.947 778.461 390.224C778.597 390.502 778.797 390.753 779.048 390.965C779.3 391.177 779.599 391.345 779.928 391.46C780.257 391.574 780.609 391.633 780.965 391.632H855.976C856.693 391.632 857.382 391.392 857.889 390.964C858.397 390.536 858.682 389.956 858.682 389.35C858.682 388.745 858.397 388.165 857.889 387.737C857.382 387.309 856.693 387.069 855.976 387.069V387.069Z" fill="#E6E6E6"/>
<path d="M855.976 421.621H780.965C780.247 421.621 779.559 421.861 779.051 422.289C778.543 422.717 778.258 423.298 778.258 423.903C778.258 424.508 778.543 425.088 779.051 425.516C779.559 425.944 780.247 426.184 780.965 426.184H855.976C856.693 426.184 857.382 425.944 857.889 425.516C858.397 425.088 858.682 424.508 858.682 423.903C858.682 423.298 858.397 422.717 857.889 422.289C857.382 421.861 856.693 421.621 855.976 421.621V421.621Z" fill="#E6E6E6"/>
<path d="M855.976 456.173H780.965C780.247 456.173 779.559 456.414 779.051 456.842C778.543 457.269 778.258 457.85 778.258 458.455C778.258 459.06 778.543 459.641 779.051 460.068C779.559 460.496 780.247 460.737 780.965 460.737H855.976C856.693 460.737 857.382 460.496 857.889 460.068C858.397 459.641 858.682 459.06 858.682 458.455C858.682 457.85 858.397 457.269 857.889 456.842C857.382 456.414 856.693 456.173 855.976 456.173Z" fill="#E6E6E6"/>
<path d="M901.427 395.219C905.16 395.219 908.186 392.668 908.186 389.521C908.186 386.374 905.16 383.823 901.427 383.823C897.694 383.823 894.668 386.374 894.668 389.521C894.668 392.668 897.694 395.219 901.427 395.219Z" fill="#F2F2F2"/>
<path d="M900.505 392.487C900.388 392.487 900.273 392.464 900.168 392.42C900.064 392.376 899.973 392.312 899.903 392.233L898.059 390.16C898 390.094 897.957 390.018 897.932 389.937C897.907 389.857 897.902 389.773 897.916 389.69C897.93 389.608 897.963 389.528 898.013 389.457C898.063 389.385 898.13 389.322 898.209 389.272C898.288 389.222 898.378 389.186 898.474 389.165C898.57 389.145 898.669 389.14 898.767 389.152C898.865 389.164 898.959 389.192 899.044 389.234C899.129 389.277 899.203 389.333 899.262 389.4L900.469 390.756L903.567 386.838C903.678 386.698 903.85 386.601 904.045 386.568C904.241 386.535 904.444 386.569 904.61 386.662C904.776 386.755 904.891 386.9 904.93 387.065C904.969 387.23 904.929 387.401 904.818 387.541L901.13 392.205C901.064 392.289 900.974 392.359 900.869 392.408C900.763 392.457 900.646 392.484 900.526 392.487L900.505 392.487Z" fill="white"/>
<path d="M901.427 429.772C905.16 429.772 908.186 427.22 908.186 424.073C908.186 420.926 905.16 418.375 901.427 418.375C897.694 418.375 894.668 420.926 894.668 424.073C894.668 427.22 897.694 429.772 901.427 429.772Z" fill="#F2F2F2"/>
<path d="M900.505 427.039C900.388 427.039 900.273 427.016 900.168 426.972C900.064 426.928 899.973 426.864 899.903 426.785L898.059 424.713C898 424.646 897.957 424.57 897.932 424.49C897.907 424.409 897.902 424.325 897.916 424.243C897.93 424.16 897.963 424.081 898.013 424.009C898.063 423.937 898.13 423.875 898.209 423.825C898.288 423.775 898.378 423.738 898.474 423.718C898.57 423.697 898.669 423.693 898.767 423.704C898.865 423.716 898.959 423.744 899.044 423.787C899.129 423.829 899.203 423.885 899.262 423.952L900.469 425.308L903.567 421.39C903.622 421.321 903.692 421.261 903.774 421.215C903.856 421.169 903.948 421.136 904.045 421.12C904.142 421.104 904.242 421.104 904.339 421.12C904.436 421.136 904.528 421.168 904.61 421.214C904.692 421.26 904.763 421.32 904.817 421.389C904.872 421.458 904.911 421.536 904.93 421.617C904.949 421.699 904.949 421.783 904.93 421.865C904.911 421.946 904.873 422.024 904.818 422.093L901.13 426.757C901.064 426.841 900.974 426.911 900.869 426.96C900.763 427.009 900.646 427.036 900.526 427.039L900.505 427.039Z" fill="white"/>
<path d="M901.427 464.324C905.16 464.324 908.186 461.773 908.186 458.626C908.186 455.479 905.16 452.927 901.427 452.927C897.694 452.927 894.668 455.479 894.668 458.626C894.668 461.773 897.694 464.324 901.427 464.324Z" fill="#F2F2F2"/>
<path d="M855.976 352.516H780.965C780.247 352.516 779.559 352.757 779.051 353.185C778.543 353.613 778.258 354.193 778.258 354.798C778.258 355.403 778.543 355.984 779.051 356.412C779.559 356.84 780.247 357.08 780.965 357.08H855.976C856.693 357.08 857.382 356.84 857.889 356.412C858.397 355.984 858.682 355.403 858.682 354.798C858.682 354.193 858.397 353.613 857.889 353.185C857.382 352.757 856.693 352.516 855.976 352.516Z" fill="#E6E6E6"/>
<path d="M901.427 360.667C905.16 360.667 908.186 358.116 908.186 354.969C908.186 351.822 905.16 349.271 901.427 349.271C897.694 349.271 894.668 351.822 894.668 354.969C894.668 358.116 897.694 360.667 901.427 360.667Z" fill="white"/>
<path d="M900.505 357.935C900.388 357.935 900.273 357.912 900.168 357.868C900.064 357.824 899.973 357.76 899.903 357.681L898.059 355.608C898 355.542 897.957 355.466 897.932 355.385C897.907 355.304 897.902 355.22 897.916 355.138C897.93 355.056 897.963 354.976 898.013 354.904C898.063 354.833 898.13 354.77 898.209 354.72C898.288 354.67 898.378 354.634 898.474 354.613C898.57 354.593 898.669 354.588 898.767 354.6C898.865 354.612 898.959 354.64 899.044 354.682C899.129 354.725 899.203 354.781 899.262 354.848L900.469 356.204L903.567 352.285C903.622 352.216 903.692 352.157 903.774 352.11C903.856 352.064 903.948 352.032 904.045 352.015C904.142 351.999 904.242 351.999 904.339 352.015C904.435 352.031 904.528 352.063 904.61 352.11C904.692 352.156 904.763 352.215 904.817 352.284C904.872 352.353 904.911 352.431 904.93 352.513C904.949 352.594 904.949 352.678 904.93 352.76C904.911 352.842 904.873 352.919 904.818 352.989L901.13 357.652C901.064 357.737 900.974 357.806 900.869 357.855C900.763 357.904 900.646 357.932 900.526 357.934L900.505 357.935Z" fill="white"/>
<path d="M879.001 360.667C882.734 360.667 885.76 358.116 885.76 354.969C885.76 351.822 882.734 349.271 879.001 349.271C875.268 349.271 872.242 351.822 872.242 354.969C872.242 358.116 875.268 360.667 879.001 360.667Z" fill="#F2F2F2"/>
<path d="M879.001 395.219C882.734 395.219 885.76 392.668 885.76 389.521C885.76 386.374 882.734 383.823 879.001 383.823C875.268 383.823 872.242 386.374 872.242 389.521C872.242 392.668 875.268 395.219 879.001 395.219Z" fill="#F2F2F2"/>
<path d="M879.001 429.772C882.734 429.772 885.76 427.22 885.76 424.073C885.76 420.926 882.734 418.375 879.001 418.375C875.268 418.375 872.242 420.926 872.242 424.073C872.242 427.22 875.268 429.772 879.001 429.772Z" fill="#F2F2F2"/>
<path d="M879.001 464.324C882.734 464.324 885.76 461.773 885.76 458.626C885.76 455.479 882.734 452.927 879.001 452.927C875.268 452.927 872.242 455.479 872.242 458.626C872.242 461.773 875.268 464.324 879.001 464.324Z" fill="#F2F2F2"/>
<path d="M900.505 461.591C900.388 461.591 900.273 461.568 900.168 461.524C900.064 461.48 899.973 461.416 899.903 461.338L898.059 459.265C898 459.198 897.957 459.123 897.932 459.042C897.908 458.961 897.902 458.877 897.916 458.795C897.93 458.713 897.964 458.633 898.014 458.562C898.064 458.49 898.131 458.428 898.21 458.378C898.289 458.328 898.378 458.291 898.474 458.271C898.57 458.25 898.669 458.245 898.767 458.257C898.865 458.269 898.959 458.297 899.044 458.339C899.129 458.382 899.203 458.438 899.262 458.504L900.469 459.86L903.567 455.942C903.678 455.802 903.85 455.705 904.045 455.672C904.241 455.639 904.444 455.673 904.61 455.766C904.776 455.86 904.891 456.005 904.93 456.169C904.969 456.334 904.929 456.505 904.818 456.645L901.13 461.309C901.064 461.393 900.974 461.463 900.869 461.512C900.763 461.561 900.646 461.588 900.526 461.591L900.505 461.591Z" fill="white"/>
<path d="M890.759 569.936C890.761 569.968 890.755 570.001 890.739 570.031C890.724 570.061 890.701 570.087 890.671 570.108C890.625 570.137 890.571 570.156 890.514 570.162C890.456 570.173 890.395 570.163 890.345 570.137C890.295 570.11 890.259 570.068 890.245 570.019C889.438 567.733 887.463 565.979 885.593 564.26C883.91 562.718 882.256 561.092 881.408 559.086C881.041 558.29 880.878 557.437 880.931 556.583C880.983 555.73 881.249 554.895 881.712 554.135C882.003 553.68 882.341 553.248 882.723 552.844C883.559 551.947 884.552 551.149 885.447 550.302C885.54 550.213 885.634 550.119 885.721 550.031C885.844 549.917 885.955 549.799 886.06 549.681C887.175 548.518 887.95 547.151 888.322 545.69C888.721 543.908 888.782 542.083 888.503 540.285C888.386 539.329 888.225 538.38 888.018 537.437C888.006 537.393 888.001 537.353 887.989 537.314C887.087 533.271 885.446 529.37 883.126 525.75C883.039 525.617 882.957 525.484 882.869 525.356C882.495 524.784 882.109 524.223 881.7 523.671C881.841 523.587 881.993 523.508 882.145 523.434C883.485 525.264 884.651 527.18 885.634 529.165C886.903 531.711 887.857 534.361 888.48 537.072C888.521 537.22 888.55 537.373 888.579 537.521C888.825 538.659 889.006 539.812 889.117 540.96C889.336 542.761 889.19 544.58 888.684 546.34C888.226 547.736 887.414 549.032 886.306 550.139C886.107 550.351 885.897 550.558 885.675 550.76C884.786 551.578 883.804 552.371 883.004 553.263C882.595 553.711 882.248 554.197 881.969 554.711C881.028 556.485 881.472 558.426 882.513 560.092C884.395 563.122 887.983 565.186 889.894 568.157C890.247 568.704 890.533 569.28 890.747 569.877C890.754 569.896 890.758 569.916 890.759 569.936Z" fill="white"/>
<path d="M888.337 537.573C889.978 537.225 891.419 536.397 892.403 535.237C893.387 534.076 893.849 532.659 893.708 531.237C893.678 530.95 893.146 530.976 893.176 531.263C893.311 532.587 892.88 533.907 891.961 534.986C891.043 536.065 889.697 536.832 888.167 537.148C887.834 537.217 888.007 537.641 888.337 537.573Z" fill="white"/>
<path d="M886.205 549.754C883.222 548.279 881.007 545.91 880.004 543.12C879.904 542.843 879.4 542.988 879.5 543.264C880.551 546.166 882.861 548.627 885.97 550.156C886.266 550.302 886.5 549.899 886.205 549.754V549.754Z" fill="white"/>
<path d="M883.191 525.726C883.167 525.735 883.15 525.74 883.126 525.75C882.074 526.155 880.877 526.203 879.783 525.883C879.831 525.738 879.892 525.597 879.965 525.459C880.914 525.734 881.951 525.697 882.869 525.356C882.922 525.341 882.969 525.322 883.021 525.302C883.088 525.282 883.161 525.286 883.224 525.312C883.288 525.338 883.337 525.384 883.36 525.44C883.379 525.497 883.373 525.558 883.341 525.61C883.31 525.663 883.256 525.704 883.191 525.726V525.726Z" fill="white"/>
<path d="M854.059 450.227C854.57 449.708 854.939 449.101 855.142 448.449C855.345 447.797 855.376 447.115 855.232 446.451C855.088 445.788 854.774 445.159 854.311 444.609C853.847 444.06 853.247 443.602 852.551 443.269L856.081 427.149L846.776 430.47L844.851 445.269C844.265 446.291 844.144 447.459 844.511 448.551C844.878 449.644 845.707 450.584 846.842 451.196C847.977 451.807 849.339 452.046 850.669 451.867C851.999 451.689 853.205 451.105 854.059 450.227V450.227Z" fill="#FFB6B6"/>
<path d="M859.737 402.516L856.78 394.135L835.927 366.706C834.768 365.564 833.382 364.6 831.831 363.858C828.749 362.373 825.156 361.823 821.651 362.301C818.147 362.778 814.942 364.254 812.572 366.481C810.201 368.709 808.808 371.555 808.624 374.543C808.441 377.532 809.478 380.484 811.562 382.906C811.992 383.412 812.467 383.89 812.983 384.335L839.989 407.817L841.526 409.157L843.958 414.34L844.916 437.975L845.775 438.148L853.344 439.651L854.401 439.862L856.172 432.142L857.283 428.451C858.227 425.304 858.704 422.07 858.703 418.824C858.703 417.824 858.662 416.819 858.568 415.819L859.737 402.516Z" fill="#3F3D56"/>
<path d="M831.071 565.496H823.83L820.385 541.95L831.072 541.95L831.071 565.496Z" fill="#FFB6B6"/>
<path d="M830.878 563.501L823.152 560.855L822.924 560.776L818.658 563.501C816.316 563.501 814.065 564.263 812.374 565.628C810.683 566.993 809.683 568.856 809.581 570.828C809.57 570.936 809.57 571.049 809.57 571.163V571.414H832.918V563.501H830.878Z" fill="#2F2E41"/>
<path d="M817.281 553.319L811.04 556.414L793.906 537.594L803.117 533.025L817.281 553.319Z" fill="#FFB6B6"/>
<path d="M821.591 556.421L820.744 555.204L817.676 550.809L816.08 551.602L815.917 551.681L807.664 552.706L807.419 552.736L805.385 556.909C804.356 557.419 803.456 558.095 802.737 558.898C802.018 559.701 801.494 560.616 801.194 561.59C800.895 562.564 800.826 563.579 800.991 564.575C801.157 565.572 801.554 566.531 802.159 567.398L802.311 567.61L822.433 557.628L821.591 556.421Z" fill="#2F2E41"/>
<path d="M840.242 421.548C843.637 430.18 843.278 439.55 839.426 449.606L838.421 484.177L835.191 505.983C837.139 510.256 838.138 514.794 838.138 519.372C838.125 531.37 837.168 548.415 832.316 556.423H820.834L818.243 520.764L815.15 502.836L814.768 483.624L814.436 466.868L801.952 482.258L789.821 497.212L801.878 514.359L812.398 541.95L801.294 549.833L788.697 529.7L782.592 523.72L765.926 493.305L767.424 489.071C770.509 480.35 774.988 472.024 780.739 464.322V464.322L797.316 431.888L840.242 421.548Z" fill="#2F2E41"/>
<path d="M841.713 418.666L839.82 415.474L839.989 407.817L840.556 381.931C840.624 378.578 839.887 375.248 838.387 372.142C836.887 369.036 834.657 366.218 831.831 363.858C830.153 362.449 828.277 361.22 826.243 360.197L822.176 358.148L820.119 353.743L801.148 354.132L801.107 358.404L801.089 359.907L794.292 369.041L794.298 369.081L794.439 385.705L794.719 418.794L796.595 423.924L793.761 429.895L795.268 433.699L796.472 433.536L837.02 428.072C838.863 427.574 840.428 426.526 841.421 425.126C841.621 424.852 841.795 424.565 841.941 424.268C842.384 423.376 842.592 422.413 842.553 421.446C842.513 420.48 842.227 419.531 841.713 418.666Z" fill="#3F3D56"/>
<path d="M808.894 348.264C818.414 348.264 826.132 341.758 826.132 333.731C826.132 325.705 818.414 319.199 808.894 319.199C799.373 319.199 791.655 325.705 791.655 333.731C791.655 341.758 799.373 348.264 808.894 348.264Z" fill="#FFB6B6"/>
<path d="M819.617 345.773C821.438 344.693 823.282 342.638 824.51 341.098C826.137 339.075 827.242 336.786 827.754 334.38C828.265 331.973 828.171 329.503 827.477 327.13C827.253 326.18 826.725 325.3 825.951 324.584C825.556 324.235 825.039 324 824.476 323.913C823.912 323.827 823.331 323.892 822.814 324.101C823.074 323.488 823.183 322.836 823.133 322.185C823.082 321.535 822.875 320.9 822.522 320.32C821.807 319.162 820.781 318.161 819.526 317.395C817.126 315.881 814.285 314.943 811.303 314.681C808.322 314.419 805.312 314.842 802.593 315.905C801.523 316.338 803.238 313.069 802.116 313.396C801.003 313.774 799.758 313.77 798.648 313.385C797.58 312.947 794.111 315.661 794.502 314.716C793.703 315.033 793.011 315.516 792.493 316.119C791.975 316.722 791.646 317.426 791.537 318.165C791.428 318.904 791.542 319.655 791.87 320.346C792.198 321.038 792.728 321.648 793.411 322.121C794.311 322.744 795.427 323.095 796.41 323.621C798.133 324.614 799.366 326.103 799.875 327.809C800.385 329.515 800.135 331.32 799.175 332.881C800.19 332.314 801.308 331.889 802.485 331.623C803.075 331.494 803.693 331.486 804.288 331.599C804.883 331.712 805.437 331.944 805.904 332.274C806.296 332.642 806.595 333.073 806.782 333.542C806.969 334.01 807.04 334.506 806.991 334.999C806.969 335.986 806.706 336.96 806.691 337.947C806.647 340.842 804.899 346.366 807.586 347.873C809.706 349.062 817.131 347.248 819.617 345.773Z" fill="#2F2E41"/>
<path d="M713.129 369.08C713.537 369.66 714.09 370.157 714.751 370.538C715.412 370.918 716.163 371.171 716.953 371.28C717.742 371.389 718.55 371.35 719.32 371.167C720.09 370.984 720.803 370.661 721.409 370.221L738.232 378.44L737.649 369.936L721.763 363.435C720.818 362.626 719.553 362.137 718.21 362.061C716.866 361.986 715.536 362.328 714.472 363.024C713.407 363.72 712.683 364.721 712.435 365.837C712.188 366.953 712.435 368.107 713.129 369.08V369.08Z" fill="#FFB6B6"/>
<path d="M821.773 366.534C821.12 364.814 820.053 363.227 818.637 361.871C817.222 360.516 815.489 359.422 813.549 358.659C811.608 357.895 809.5 357.479 807.359 357.435C805.218 357.391 803.09 357.721 801.107 358.404C800.92 358.468 800.733 358.537 800.546 358.606L763.224 372.929L748.695 371.475L729.888 365.937L729.409 366.563L725.183 372.067L724.593 372.835L744.768 382.891L746.907 383.266C748.769 383.591 750.538 384.222 752.11 385.124C753.683 386.027 755.028 387.181 756.071 388.523L763.89 390.691L794.439 385.705L811.563 382.906L812.533 382.748C815.467 381.796 817.991 380.118 819.771 377.933C821.552 375.748 822.507 373.16 822.509 370.51C822.51 369.16 822.261 367.819 821.773 366.534V366.534Z" fill="#3F3D56"/>
<path d="M908.618 572H705.242C705.057 572 704.88 571.938 704.75 571.828C704.619 571.718 704.546 571.569 704.546 571.413C704.546 571.258 704.619 571.109 704.75 570.999C704.88 570.889 705.057 570.827 705.242 570.827H908.618C908.802 570.827 908.979 570.889 909.11 570.999C909.24 571.109 909.314 571.258 909.314 571.413C909.314 571.569 909.24 571.718 909.11 571.828C908.979 571.938 908.802 572 908.618 572Z" fill="#CCCCCC"/>
<path d="M689.723 434.925H566.205C565.488 434.926 564.8 435.166 564.294 435.594C563.787 436.022 563.502 436.602 563.502 437.207C563.502 437.811 563.787 438.391 564.294 438.819C564.8 439.247 565.488 439.487 566.205 439.488H689.723C690.079 439.489 690.432 439.43 690.76 439.316C691.089 439.201 691.388 439.033 691.64 438.821C691.892 438.609 692.091 438.358 692.228 438.08C692.364 437.803 692.434 437.506 692.434 437.207C692.434 436.907 692.364 436.61 692.228 436.333C692.091 436.055 691.892 435.804 691.64 435.592C691.388 435.38 691.089 435.212 690.76 435.097C690.432 434.983 690.079 434.924 689.723 434.925H689.723Z" fill="#E6E6E6"/>
<path d="M735.175 443.075C738.908 443.075 741.934 440.524 741.934 437.377C741.934 434.23 738.908 431.679 735.175 431.679C731.442 431.679 728.416 434.23 728.416 437.377C728.416 440.524 731.442 443.075 735.175 443.075Z" fill="white"/>
<path d="M734.253 440.343C734.136 440.343 734.021 440.32 733.916 440.276C733.812 440.232 733.721 440.168 733.651 440.089L731.807 438.016C731.748 437.95 731.705 437.874 731.68 437.793C731.656 437.713 731.65 437.629 731.664 437.547C731.678 437.464 731.711 437.385 731.762 437.313C731.812 437.242 731.879 437.179 731.958 437.129C732.037 437.079 732.126 437.043 732.222 437.022C732.318 437.002 732.417 436.997 732.515 437.009C732.613 437.02 732.707 437.048 732.792 437.091C732.877 437.133 732.951 437.189 733.01 437.256L734.217 438.612L737.315 434.694C737.37 434.624 737.44 434.565 737.522 434.519C737.604 434.472 737.696 434.44 737.793 434.424C737.89 434.407 737.99 434.407 738.087 434.423C738.183 434.44 738.276 434.472 738.358 434.518C738.44 434.564 738.51 434.623 738.565 434.693C738.62 434.762 738.659 434.839 738.678 434.921C738.697 435.003 738.697 435.087 738.678 435.168C738.659 435.25 738.621 435.328 738.566 435.397L734.878 440.061C734.812 440.145 734.722 440.215 734.617 440.264C734.511 440.313 734.394 440.34 734.273 440.343L734.253 440.343Z" fill="white"/>
<path d="M712.749 443.075C716.482 443.075 719.508 440.524 719.508 437.377C719.508 434.23 716.482 431.679 712.749 431.679C709.016 431.679 705.99 434.23 705.99 437.377C705.99 440.524 709.016 443.075 712.749 443.075Z" fill="#F2F2F2"/>
<path d="M689.139 462.516H565.62C564.903 462.517 564.216 462.758 563.709 463.186C563.202 463.613 562.918 464.193 562.918 464.798C562.918 465.402 563.202 465.982 563.709 466.41C564.216 466.838 564.903 467.079 565.62 467.08H689.139C689.857 467.08 690.545 466.839 691.053 466.411C691.56 465.983 691.846 465.403 691.846 464.798C691.846 464.193 691.56 463.612 691.053 463.184C690.545 462.756 689.857 462.516 689.139 462.516H689.139Z" fill="#E6E6E6"/>
<path d="M734.59 470.667C738.323 470.667 741.349 468.116 741.349 464.968C741.349 461.821 738.323 459.27 734.59 459.27C730.857 459.27 727.831 461.821 727.831 464.968C727.831 468.116 730.857 470.667 734.59 470.667Z" fill="#F2F2F2"/>
<path d="M733.668 467.934C733.551 467.934 733.436 467.911 733.332 467.867C733.228 467.823 733.137 467.759 733.067 467.681L731.223 465.608C731.103 465.473 731.052 465.304 731.08 465.138C731.108 464.971 731.214 464.821 731.373 464.72C731.533 464.62 731.733 464.576 731.931 464.6C732.128 464.624 732.306 464.713 732.426 464.847L733.632 466.203L736.731 462.285C736.785 462.216 736.856 462.156 736.938 462.11C737.02 462.064 737.112 462.031 737.209 462.015C737.306 461.999 737.405 461.999 737.502 462.015C737.599 462.031 737.691 462.063 737.773 462.109C737.855 462.155 737.926 462.215 737.981 462.284C738.036 462.353 738.074 462.431 738.093 462.512C738.113 462.594 738.113 462.678 738.094 462.76C738.075 462.841 738.037 462.919 737.982 462.988L734.294 467.652C734.227 467.736 734.137 467.806 734.032 467.855C733.927 467.904 733.809 467.931 733.689 467.934L733.668 467.934Z" fill="white"/>
<path d="M712.164 470.667C715.897 470.667 718.923 468.116 718.923 464.968C718.923 461.821 715.897 459.27 712.164 459.27C708.431 459.27 705.405 461.821 705.405 464.968C705.405 468.116 708.431 470.667 712.164 470.667Z" fill="#F2F2F2"/>
</g>
<path d="M608 815.833C619.488 815.833 628.833 806.487 628.833 795C628.833 783.512 619.488 774.167 608 774.167C596.513 774.167 587.167 783.512 587.167 795C587.167 806.487 596.513 815.833 608 815.833ZM608 778.333C617.19 778.333 624.667 785.81 624.667 795C624.667 804.19 617.19 811.667 608 811.667C598.81 811.667 591.333 804.19 591.333 795C591.333 785.81 598.81 778.333 608 778.333Z" fill="#E7E5E5"/>
<path d="M622.583 795C622.583 791.132 621.047 787.423 618.312 784.688C615.577 781.953 611.868 780.417 608 780.417V809.583C611.868 809.583 615.577 808.047 618.312 805.312C621.047 802.577 622.583 798.868 622.583 795V795Z" fill="#E7E5E5"/>
<line x1="489" y1="695" x2="964" y2="695" stroke="#7A7878" stroke-width="10"/>
<circle cx="614.5" cy="695.5" r="19.5" fill="#0014CB"/>
<defs>
<filter id="filter0_d_2:2" x="812.12" y="787" width="80.4247" height="22" filterUnits="userSpaceOnUse" color-interpolation-filters="sRGB">
<feFlood flood-opacity="0" result="BackgroundImageFix"/>
<feColorMatrix in="SourceAlpha" type="matrix" values="0 0 0 0 0 0 0 0 0 0 0 0 0 0 0 0 0 0 127 0" result="hardAlpha"/>
<feOffset dy="4"/>
<feGaussianBlur stdDeviation="2"/>
<feComposite in2="hardAlpha" operator="out"/>
<feColorMatrix type="matrix" values="0 0 0 0 0 0 0 0 0 0 0 0 0 0 0 0 0 0 0.25 0"/>
<feBlend mode="normal" in2="BackgroundImageFix" result="effect1_dropShadow_2:2"/>
<feBlend mode="normal" in="SourceGraphic" in2="effect1_dropShadow_2:2" result="shape"/>
</filter>
<filter id="filter1_d_2:2" x="1060.12" y="787" width="80.4247" height="22" filterUnits="userSpaceOnUse" color-interpolation-filters="sRGB">
<feFlood flood-opacity="0" result="BackgroundImageFix"/>
<feColorMatrix in="SourceAlpha" type="matrix" values="0 0 0 0 0 0 0 0 0 0 0 0 0 0 0 0 0 0 127 0" result="hardAlpha"/>
<feOffset dy="4"/>
<feGaussianBlur stdDeviation="2"/>
<feComposite in2="hardAlpha" operator="out"/>
<feColorMatrix type="matrix" values="0 0 0 0 0 0 0 0 0 0 0 0 0 0 0 0 0 0 0.25 0"/>
<feBlend mode="normal" in2="BackgroundImageFix" result="effect1_dropShadow_2:2"/>
<feBlend mode="normal" in="SourceGraphic" in2="effect1_dropShadow_2:2" result="shape"/>
</filter>
<filter id="filter2_d_2:2" x="953.3" y="787" width="47.5023" height="22" filterUnits="userSpaceOnUse" color-interpolation-filters="sRGB">
<feFlood flood-opacity="0" result="BackgroundImageFix"/>
<feColorMatrix in="SourceAlpha" type="matrix" values="0 0 0 0 0 0 0 0 0 0 0 0 0 0 0 0 0 0 127 0" result="hardAlpha"/>
<feOffset dy="4"/>
<feGaussianBlur stdDeviation="2"/>
<feComposite in2="hardAlpha" operator="out"/>
<feColorMatrix type="matrix" values="0 0 0 0 0 0 0 0 0 0 0 0 0 0 0 0 0 0 0.25 0"/>
<feBlend mode="normal" in2="BackgroundImageFix" result="effect1_dropShadow_2:2"/>
<feBlend mode="normal" in="SourceGraphic" in2="effect1_dropShadow_2:2" result="shape"/>
</filter>
<clipPath id="clip0_2:2">
<rect width="439" height="275" fill="white" transform="translate(516 297)"/>
</clipPath>
</defs>
</svg>
